<?xml version="1.0" standalone="no"?>
<!DOCTYPE svg PUBLIC "-//W3C//DTD SVG 20010904//EN"
 "http://www.w3.org/TR/2001/REC-SVG-20010904/DTD/svg10.dtd">
<svg version="1.0" xmlns="http://www.w3.org/2000/svg"
 width="102.000000pt" height="92.000000pt" viewBox="0 0 102.000000 92.000000"
 preserveAspectRatio="xMidYMid meet">

<g transform="translate(0.000000,92.000000) scale(0.100000,-0.100000)"
fill="#000000" stroke="none">
<path d="M0 460 l0 -380 131 0 131 0 -62 61 c-182 179 -182 459 0 641 l58 58
-129 0 -129 0 0 -380z"/>
<path d="M832 783 c74 -79 105 -135 124 -228 33 -158 -19 -323 -133 -424 l-57
-51 127 0 127 0 0 380 0 380 -122 0 -121 0 55 -57z"/>
<path d="M415 664 c-50 -18 -111 -77 -126 -122 -6 -19 -9 -63 -7 -98 8 -120
90 -194 217 -194 36 0 82 5 102 10 42 12 106 71 125 117 23 53 18 132 -12 191
-22 44 -34 55 -86 82 -70 34 -144 39 -213 14z m141 -129 c34 -23 49 -69 34
-105 -27 -65 -92 -79 -141 -31 -37 37 -38 79 -3 120 29 35 75 42 110 16z"/>
</g>
</svg>
